<?xml version="1.0" encoding="iso-8859-1"?>
<!-- Generator: Adobe Illustrator 16.0.0, SVG Export Plug-In . SVG Version: 6.00 Build 0)  -->
<!DOCTYPE svg PUBLIC "-//W3C//DTD SVG 1.1//EN" "http://www.w3.org/Graphics/SVG/1.1/DTD/svg11.dtd">
<svg version="1.1" id="Capa_1" xmlns="http://www.w3.org/2000/svg" xmlns:xlink="http://www.w3.org/1999/xlink" x="0px" y="0px"
	 width="480.69px" height="480.69px" viewBox="0 0 480.69 480.69" style="enable-background:new 0 0 480.69 480.69;"
	 xml:space="preserve">
<g>
	<g>
		<path d="M414.072,234.218c6.903,0,12.5-5.597,12.5-12.5V12.5c0-6.903-5.597-12.5-12.5-12.5h-80.597c-6.903,0-12.5,5.597-12.5,12.5
			v209.218c0,6.903,5.597,12.5,12.5,12.5H414.072z M345.976,25h55.597v184.218h-55.597V25z"/>
		<path d="M278.421,209.364H66.595c-6.903,0-12.5,5.596-12.5,12.5s5.597,12.5,12.5,12.5h211.826c6.903,0,12.5-5.596,12.5-12.5
			S285.325,209.364,278.421,209.364z"/>
		<path d="M54.659,257.027c-1.626,5.226,0.337,10.901,4.844,14.006l134.995,93.002l-62.285,97.422
			c-2.46,3.848-2.625,8.73-0.432,12.736c2.193,4.007,6.397,6.497,10.964,6.497h271.352c4.567,0,8.771-2.49,10.964-6.497
			c2.193-4.005,2.028-8.889-0.432-12.736l-74.183-116.03l71.776-76.11c3.423-3.63,4.359-8.947,2.383-13.527
			c-1.977-4.582-6.488-7.549-11.477-7.549H66.595C61.122,248.24,56.285,251.801,54.659,257.027z M384.158,273.24l-58.59,62.127
			c-3.932,4.17-4.524,10.48-1.438,15.31l67.137,105.013H165.573l56.494-88.363c3.628-5.676,2.107-13.207-3.44-17.027
			l-111.854-77.061h277.385V273.24z"/>
		<path d="M303.346,22.845c-6.904,0-12.5,5.596-12.5,12.5v34c0,6.904,5.596,12.5,12.5,12.5s12.5-5.596,12.5-12.5v-34
			C315.846,28.441,310.25,22.845,303.346,22.845z"/>
	</g>
</g>
<g>
</g>
<g>
</g>
<g>
</g>
<g>
</g>
<g>
</g>
<g>
</g>
<g>
</g>
<g>
</g>
<g>
</g>
<g>
</g>
<g>
</g>
<g>
</g>
<g>
</g>
<g>
</g>
<g>
</g>
</svg>
